Patient4_TMGait_0pt7_02_left_49_EMG.mot
version=1
nRows=40
nColumns=33
inDegrees=no
endheader
time	1LAddLong	2LGlutMax	3LGlutMed	4LIliopsoas	5LSemiMemb	6LBicFemLong	7LRecFem	8LVastMed	9LVastLat	10LGasMed	11LTibAnt	12lTibPost	13LPeroneusLong	14LSol	15LExtDigLong	16LFlexDigLong	17RAddLong	18RGlutMax	19RGlutMed	20RIliopsoas	21RSemiMemb	22RBicFemLong	23RRecFem	24RVastMed	25RVastLat	26RGasMed	27RTibAnt	28RTibPost	29RPeroneusLong	30RSol	31RExtDigLong	32RFlexDigLong
57.32	0.012665	-0.074921	-0.051575	0.005798	-0.002441	-0.046692	-0.00473	0.007935	0.014648	-0.009918	-0.003967	0.004425	0.20798	-0.048523	0.060577	-0.00885	0.060883	0.034943	0.25299	-0.24658	-0.015259	-0.32013	-0.23438	-0.13733	0.2533	-0.010529	-0.19562	-0.0177	0.32379	-0.32806	-0.001831	-0.003815
57.321	0.006256	-0.076447	0.029755	0.013428	-0.029755	-0.064392	-0.000916	0.004578	0.031586	-0.042114	-0.001678	-0.001526	0.38086	-0.080414	0.035706	-0.12054	0.033112	0.012512	0.11185	-0.36484	-0.23605	-0.28793	-0.083923	0.059509	0.27451	-0.012207	-0.87738	-0.015106	0.43243	-0.35584	-0.002747	-0.00351
57.322	0.014343	-0.073547	0.068665	0.006104	-0.047913	-0.099945	0.000458	0.004425	0.028687	-0.050354	0.008698	0.005188	0.32044	-0.07843	-0.010071	0.063629	-0.023499	-0.016632	0.023651	-0.19287	-0.41519	0.049286	-0.079498	0.11826	0.24429	-0.036621	-0.32562	-0.013123	0.18875	-0.17471	0.001068	-0.007019
57.323	0.019989	-0.055084	0.050964	0.002289	-0.029907	-0.097809	-0.010071	0	0.027161	-0.051727	0.039063	0.002594	0.25894	-0.028534	-0.035095	0.13962	-0.074768	-0.049286	-0.1622	0.074158	-0.26138	0.28351	-0.10605	0.15045	0.16739	-0.057831	-0.32028	-0.015106	0.09079	-0.023041	-0.003204	-0.016785
57.324	0.033112	-0.065918	0.018616	0.009613	0.000916	-0.094604	-0.006409	0.000153	0.016785	-0.034485	0.042419	0.00473	0.16235	-0.007019	-0.076904	-0.42664	-0.063477	-0.050812	-0.031281	0.23834	-0.14908	0.3714	-0.053864	0.099945	0.10315	-0.040741	-0.23987	-0.015259	0.11902	0.16296	-0.002289	-0.016937
57.325	0.018768	-0.057831	0.020447	-0.002289	0.063171	-0.075684	-0.009003	0.006104	0.020447	0.006104	0.037079	0.004578	0.1236	-0.000153	-0.12909	0.28244	-0.036011	-0.037842	0.075226	0.27054	0.11551	0.31235	-0.055695	0.001831	0.065918	-0.024109	-0.15961	0.010071	0.13458	0.1297	0.002289	-0.020447
57.326	0.011597	-0.020142	0.008087	0.011902	0.026398	-0.00946	-0.003052	0.008698	0.020447	0.036621	0.055237	0.001221	0.14038	0.05249	-0.072174	0.14343	-0.029602	0.001831	0.091248	0.30716	0.16007	0.2121	-0.026245	-0.044098	0.049438	-0.032043	-0.233	-0.000916	0.10071	-0.33722	-0.00351	-0.012207
57.327	0.005493	-0.050507	-0.031128	0.000763	-0.003052	-0.005493	-0.00351	0.006256	0.008545	0.065308	-0.016174	0.005493	0.13107	0.071106	-0.036621	0.014954	-0.010071	-0.040894	-0.086823	0.20309	0.059357	0.21149	0.013428	-0.12405	0.029449	-0.04364	-0.27344	-0.016785	-0.020599	-0.67627	-0.001831	-0.015869
57.328	-0.001221	-0.027008	-0.019073	-0.011292	-0.018463	-0.017242	0.017395	0.001068	0.014191	0.063934	-0.057068	0.00351	0.14694	-0.007935	-0.016632	-0.02182	-0.000916	0.061798	0.44083	-0.14084	-0.08194	0.21515	0.059357	-0.092773	0.019073	-0.040894	-0.1828	-0.10452	0.084381	-0.64545	0.001373	-0.015869
57.329	0.002899	-0.023956	-0.019073	0.011902	-0.019684	-0.012665	0.018768	0.006256	0.015717	0.007935	-0.019379	0.00351	0.15991	-0.027161	0.016632	-0.042114	0.001678	-0.004272	0.56915	-0.20172	0.01297	0.1239	0.07019	-0.011597	0.04425	-0.037842	0.015564	0.022125	0.25833	0.18158	0.00061	-0.013275
57.33	0.006104	-0.044556	-0.017548	-0.00061	-0.022888	-0.018311	-0.001831	0.008545	0.012512	-0.011749	-0.006714	0.003967	0.12222	-0.042419	0.027466	-0.040741	-0.027008	-0.11536	1.1832	-0.16037	0.026855	0.058899	0.028534	0.067444	0.04425	-0.11948	0.13184	0.007019	-0.23972	0.28122	0.000763	-0.018158
57.331	0.006409	-0.042419	-0.041962	-0.006561	-0.018768	-0.020447	0.010223	0.00824	0.003357	-0.020447	-0.005493	0.006409	0.078888	-0.085754	0.033417	-0.04364	-0.045166	-0.091858	0.05188	-0.028076	-0.15976	0.002594	-0.015411	0.14771	0.046692	-0.13062	0.10834	-0.058441	-1.4793	0.30075	-0.001068	-0.017853
57.332	0.006409	-0.044708	-0.06012	0.012665	-0.008545	-0.032196	0.004425	0.005341	0.021362	-0.046997	0.00473	0.004883	0.070038	-0.079041	0.046387	-0.027008	-0.03006	0.030975	-0.3598	-0.029602	0.001068	-0.081787	-0.048065	0.11093	-0.040283	-0.15167	0.063629	-0.13428	-1.4807	1.122	-0.005493	-0.011444
57.333	0.014954	-0.055695	-0.040588	0.013123	0.006714	-0.018311	-0.016327	0.004425	0.028534	-0.058136	0.000916	0.004425	0.083313	-0.068665	0.028839	-0.026398	-0.018768	-0.033875	0.0737	0.057831	0.28549	-0.12787	-0.030518	0.025787	-0.088348	0.052795	0.059509	-0.20462	-0.29572	1.2494	-0.001678	-0.003967
57.334	0.009766	-0.052948	-0.047607	0.020599	0.005493	-0.020294	-0.011444	0.003052	0.039215	-0.055847	0.00473	0.00473	0.08316	-0.07843	0.00824	-0.012512	0.001221	-0.088196	-0.25192	0.14267	0.20401	-0.047607	0.085754	-0.042572	-0.11887	0.10147	0.1088	-0.17899	0.5513	0.92651	-0.00061	-0.002136
57.335	0.008392	-0.063171	-0.053711	0.007172	0.009918	-0.007629	-0.002747	0.005341	0.02533	-0.016785	0.00351	0.005035	0.093536	-0.049744	0.01297	-0.010681	0.030365	-0.059509	-0.5191	0.13229	0.050659	0.006256	0.14282	-0.052185	-0.069122	0.068512	0.073547	0.12817	0.96802	0.15778	-0.001831	0.002289
57.336	0.004578	-0.033875	-0.058441	0.010223	0.004272	-0.016785	-0.008545	0.00351	0.033722	-0.001068	-0.001678	0.006409	0.098877	-0.052643	-0.006256	-0.001526	0.058899	-0.005493	-0.39993	0.09964	0.029755	0.053864	0.088654	0.11353	0.081635	0.061798	0.035095	0.27771	0.71457	-0.90576	-0.006104	-0.001373
57.337	0.011139	-0.044098	-0.066376	0.005493	-0.006714	-0.014343	-0.023193	-0.00061	0.039978	0.018311	0.005035	-0.00061	0.12207	-0.061493	0.006561	-0.003204	0.044556	0.032959	-0.037537	0.1416	0.18478	0.041962	-0.085449	0.11108	0.16922	-0.065613	0.1088	0.01297	0.53451	-1.2595	-0.002136	-0.012512
57.338	0.005035	-0.053406	-0.070801	0.007172	-0.016022	-0.03952	-0.001984	0.001831	0.033112	0.018463	0.00885	0.00351	0.10437	-0.058594	0.016022	0.010071	0.040588	-0.036469	-0.2005	0.063477	0.33783	-0.025024	-0.2475	-0.020752	0.0737	-0.062866	0.17853	-0.37018	0.25085	-0.30319	-0.001221	-0.004425
57.339	0.009308	-0.045013	-0.10895	0.00351	-0.046844	-0.080261	-0.015564	0.000916	0.037384	0.019226	0.008392	0.002747	0.075836	-0.053864	0.014496	0.013885	0.018616	-0.035858	-0.40512	-0.071716	-0.20966	0.068207	-0.48279	-0.12268	0.13138	-0.034332	0.24674	-0.081482	0.049133	-0.12878	-0.002899	-0.005798
57.34	0.007172	-0.042877	-0.15579	-0.003967	-0.033722	-0.06958	-0.014801	-0.001068	0.022125	-0.000458	0.012207	0.003204	0.047302	-0.039368	0.00473	0.006866	-0.076141	-0.1207	-0.46738	-0.18997	-0.29587	0.060425	-0.38635	0.013428	0.13397	-0.022888	0.052032	0.51971	0.059357	-0.037079	-0.006714	-0.014954
57.341	0.00885	-0.024719	-0.11749	-0.003357	0.030518	-0.073242	-0.000305	0.003662	0.015411	-0.014801	0.007019	0	0.02243	-0.061798	0.016022	0.008392	-0.065155	-0.10056	-0.58792	-0.17563	-0.28519	0.11154	-0.11429	0.036011	0.035095	0.00885	-0.2179	0.23911	0	0.35339	-0.003662	-0.01709
57.342	0.004578	-0.001068	-0.010376	-0.010071	0.041962	-0.051422	-0.012665	0.002289	0.005951	-0.025482	0.010376	0.001678	0.014343	-0.072632	0.006866	0.007019	-0.030823	-0.027161	-0.33981	-0.055847	-0.31723	-0.014801	-0.030823	-0.049896	-0.005341	0.019531	-0.069733	-0.007172	-0.21927	0.23163	-0.002441	-0.011139
57.343	0.003662	-0.034637	0.09079	-0.002747	0.009918	-0.056152	0.022278	-0.002136	0.013733	-0.054016	0.017395	0.007782	-0.007782	-0.050659	0.007935	0.014343	0.011292	-0.036774	-0.25665	0.028534	-0.19287	-0.095673	-0.05249	-0.10483	0.002289	0.023651	-0.082703	-0.14191	-0.43335	0.34592	-0.001221	-0.012817
57.344	0.005646	-0.060577	0.14786	-0.002441	-0.010529	-0.039215	-0.000305	0.00351	0.010223	-0.037231	0.00946	0.002594	0.039978	-0.051117	0.004883	0.000916	0.02655	0.031586	-0.026855	0.083771	-0.085907	-0.15961	-0.097351	-0.068359	0.074768	0.005646	-0.12589	-0.012512	-0.30868	-0.059662	0.006256	-0.01236
57.345	0.004578	-0.061493	0.13702	-0.002289	-0.03006	-0.070038	0.019989	0.003815	0.021973	-0.023346	0.005341	0.006409	0.10757	-0.044556	0.007782	0.002899	0.061035	0.034485	-0.094604	0.082855	-0.057526	-0.12482	0.003967	-0.13382	0.071411	-0.11429	-0.10223	0.10437	-0.029144	-0.026855	-0.007019	-0.009155
57.346	0.003204	-0.04303	0.11841	-0.001373	-0.016632	-0.045013	0.018311	0.006561	0.017395	-0.011444	0.000153	0.000153	0.14862	-0.048676	0.01236	-0.001068	0.078583	0.045166	-0.37109	0.062408	-0.26672	-0.091248	-0.06546	-0.21652	-0.032959	-0.12802	0.074615	-0.013275	0.1564	0.11688	-0.001221	-0.012054
57.347	0.000305	-0.052185	0.14496	0.015717	-0.010376	-0.037231	0.011444	0.002899	0.00885	-0.019379	-0.003662	-0.003662	0.13611	-0.034637	0.011749	0.007782	0.045929	0.029755	-0.4335	0.028076	-0.39322	-0.027313	-0.045319	-0.049133	-0.018311	-0.10559	0.55786	0.12512	0.31647	-0.18204	-0.000458	-0.006561
57.348	0.000305	-0.10941	0.062103	0.003357	0.001984	-0.016632	0.021973	0.005493	0.006256	-0.043945	0.005188	0.007629	0.10361	-0.041504	0.00351	0.009308	0.01236	-0.005188	-0.16861	0.015869	-0.022278	-0.066986	-0.053558	0.087738	0.009613	-0.018768	0.42465	0.08667	0.37186	-0.45975	-0.000916	-0.006866
57.349	-0.000763	-0.121	-0.023193	0.002289	0.021515	-0.030212	0.022888	0.005493	0.002594	-0.068817	0.00473	0.001831	0.096741	-0.053558	-0.001221	0.012512	-0.080872	-0.051117	-0.099182	0.003204	0.38986	-0.025024	-0.064697	0.17319	0.032806	0.11688	-0.011597	-0.35355	0.057068	-0.06546	-0.001526	-0.013275
57.35	-0.001373	-0.16602	-0.068207	0.010529	-0.024719	-0.070496	0.006256	-0.000458	0.011902	-0.085754	0.006866	0.00412	0.11673	-0.077209	-0.007935	0.003967	-0.10483	-0.093231	-0.9668	-0.033722	0.16235	0.11978	-0.036926	0.23422	0.03891	0.069122	-0.065613	-0.048065	-0.18997	0.14908	-0.000153	-0.016327
57.351	0.012054	-0.19302	-0.10819	0.002594	-0.06012	-0.093079	0.00824	0.003357	0.009155	-0.07782	0.004272	0.010223	0.092468	-0.066528	-0.003052	0.00061	-0.072174	0.023041	-0.35049	-0.089264	0.11398	0.22308	0.037842	0.18295	0.019684	0.037079	0.06897	0.16586	-0.17502	0.30014	-0.002136	-0.0177
57.352	0.013733	-0.21713	-0.12604	-0.006561	-0.004425	-0.061188	0.010834	-0.001831	0.004425	-0.059052	0.00351	0	0.093689	-0.077209	-0.001221	0.003815	-0.036621	-0.079803	0.20477	-0.069275	0.13794	0.25955	0.095367	0.10696	-0.02243	-0.023041	0.35339	0.054626	-0.16693	0.61539	-0.002594	-0.018311
57.353	0.006104	-0.28412	-0.15915	0.001526	0.017395	-0.041199	0.011902	0.010223	0.016174	-0.048676	0.006714	0.006256	0.082703	-0.048676	0.002899	0.003204	-0.021515	-0.081787	0.11643	0.03006	0.13519	0.14603	0.20187	-0.006256	-0.063171	-0.029144	0.32883	-0.028381	-0.17319	0.34378	-0.001526	-0.021057
57.354	0.002289	-0.30395	-0.18494	-0.006256	0.01358	-0.03067	0.012054	0.00351	-0.000763	-0.029755	0.00412	0.004272	0.072479	-0.053864	-0.010529	0.029907	-0.012054	-0.14526	0.26321	0.10834	0.088196	0.089264	0.22583	-0.019836	-0.12131	-0.027771	-0.006714	-0.038605	0.021057	-0.042267	-0.008698	-0.024414
57.355	0.000763	-0.29053	-0.19989	-0.004883	-0.013733	-0.025635	0.014801	0.000916	0.013733	-0.007019	-0.00061	-0.004425	0.097656	-0.056305	-0.006714	-0.006714	-0.002594	-0.18936	0.19196	0.095825	-0.045624	0.027618	0.22919	-0.069733	-0.13458	-0.013123	-0.38879	-0.028839	0.41702	-0.39902	-0.001831	-0.010834
57.356	-0.004425	-0.21866	-0.24612	0.002594	-0.018921	-0.042725	0.015259	0.005035	0.011749	-0.005493	0.000458	0.003967	0.11246	-0.063629	-0.003662	-0.001068	0.019379	-0.24368	0.18906	0.013428	-0.11871	-0.016937	0.29434	-0.05722	-0.10574	0.015717	-1.1127	-0.038147	0.35446	-0.66895	-0.001221	-0.000153
57.357	-0.011902	-0.20798	-0.35049	0.025787	-0.043335	-0.013123	0.016174	0.004883	-0.007935	-0.004883	-0.005341	0.001984	0.10208	-0.039825	0.004272	0.001831	0.001526	-0.27329	0.21759	-0.081329	-0.020447	-0.042877	0.14236	-0.094452	-0.036469	0.014954	-0.99075	-0.032349	-0.016174	-0.67413	-0.003204	-0.001984
57.358	-0.017853	-0.1709	-0.33341	0.020142	-0.10925	-0.04425	0.01709	0.009308	-0.003967	-0.00351	0.00351	0.005951	0.088196	-0.046387	0.008392	0.00412	-0.031281	-0.27863	0.30914	-0.11612	0.22018	-0.081177	-0.45303	-0.026093	-0.001678	0.042419	-0.75928	-0.025177	0.040436	-0.59036	-0.002899	-0.00946
57.359	-0.010834	-0.17303	-0.21729	0	-0.072784	-0.058289	0.007935	0.010681	0.008087	-0.003815	0.00351	0.004272	0.098877	-0.044098	0.003967	0.011139	-0.021973	-0.23392	0.099487	-0.11459	0.26855	-0.080872	-0.569	-0.007172	-0.007629	0.058289	-0.27466	-0.027161	-0.072479	-0.34759	-0.003815	0.003815
